{
  "accessors": [
    {
      "bufferView": 2,
      "componentType": 5126,
      "count": 11344,
      "max": [
        1.0,
        1.0,
        1.000000238418579
      ],
      "min": [
        -0.9999521970748901,
        -0.9999991655349731,
        -1.000026822090149
      ],
      "type": "VEC3"
    },
    {
      "bufferView": 2,
      "byteOffset": 136128,
      "componentType": 5126,
      "count": 11344,
      "max": [
        1.0,
        1.0,
        1.0
      ],
      "min": [
        -1.0,
        -1.0,
        -1.0
      ],
      "type": "VEC3"
    },
    {
      "bufferView": 1,
      "componentType": 5126,
      "count": 11344,
      "max": [
        0.7023292183876038,
        0.9904481172561646
      ],
      "min": [
        0.009551933035254478,
        0.009551933035254478
      ],
      "type": "VEC2"
    },
    {
      "bufferView": 0,
      "componentType": 5125,
      "count": 43698,
      "type": "SCALAR"
    },
    {
      "bufferView": 2,
      "byteOffset": 272256,
      "componentType": 5126,
      "count": 7009,
      "max": [
        0.9957212805747986,
        0.9951256513595581,
        0.9924221038818359
      ],
      "min": [
        -0.9944328665733337,
        -0.9942077994346619,
        -0.9942547082901001
      ],
      "type": "VEC3"
    },
    {
      "bufferView": 2,
      "byteOffset": 356364,
      "componentType": 5126,
      "count": 7009,
      "max": [
        1.0,
        1.0,
        1.0
      ],
      "min": [
        -1.0,
        -1.0,
        -1.0
      ],
      "type": "VEC3"
    },
    {
      "bufferView": 1,
      "byteOffset": 90752,
      "componentType": 5126,
      "count": 7009,
      "max": [
        0.6178793907165527,
        0.9501835107803345
      ],
      "min": [
        0.08647750318050385,
        0.07956181466579437
      ],
      "type": "VEC2"
    },
    {
      "bufferView": 0,
      "byteOffset": 174792,
      "componentType": 5125,
      "count": 24948,
      "type": "SCALAR"
    }
  ],
  "asset": {
    "extras": {
      "author": "LW (https://sketchfab.com/kelly7y001)",
      "license": "CC-BY-4.0 (http://creativecommons.org/licenses/by/4.0/)",
      "source": "https://sketchfab.com/3d-models/dice-free-8d90377e764d487a8d9e5b2cba702974",
      "title": "Dice - Free"
    },
    "generator": "Sketchfab-16.3.0",
    "version": "2.0"
  },
  "bufferViews": [
    {
      "buffer": 0,
      "byteLength": 274584,
      "name": "floatBufferViews",
      "target": 34963
    },
    {
      "buffer": 0,
      "byteLength": 146824,
      "byteOffset": 274584,
      "byteStride": 8,
      "name": "floatBufferViews",
      "target": 34962
    },
    {
      "buffer": 0,
      "byteLength": 440472,
      "byteOffset": 421408,
      "byteStride": 12,
      "name": "floatBufferViews",
      "target": 34962
    }
  ],
  "buffers": [
    {
      "byteLength": 861880,
      "uri": "scene.bin"
    }
  ],
  "extensionsUsed": [
    "KHR_materials_specular"
  ],
  "images": [
    {
      "uri": "textures/Body.Material_baseColor.png"
    }
  ],
  "materials": [
    {
      "doubleSided": true,
      "name": "Body.Material",
      "pbrMetallicRoughness": {
        "baseColorTexture": {
          "index": 0
        },
        "metallicFactor": 0.0,
        "roughnessFactor": 0.37638209945020784
      }
    },
    {
      "doubleSided": true,
      "extensions": {
        "KHR_materials_specular": {
          "specularColorFactor": [
            1.0,
            1.0,
            1.0
          ],
          "specularFactor": 1.0
        }
      },
      "name": "Point_Material",
      "pbrMetallicRoughness": {
        "baseColorFactor": [
          0.06731316630592629,
          0.0517302041258122,
          0.0517302041258122,
          1.0
        ],
        "roughnessFactor": 0.364191586107691
      }
    }
  ],
  "meshes": [
    {
      "name": "Cube.007_Body.Material_0",
      "primitives": [
        {
          "attributes": {
            "NORMAL": 1,
            "POSITION": 0,
            "TEXCOORD_0": 2
          },
          "indices": 3,
          "material": 0,
          "mode": 4
        }
      ]
    },
    {
      "name": "Cube.007_Point_Material_0",
      "primitives": [
        {
          "attributes": {
            "NORMAL": 5,
            "POSITION": 4,
            "TEXCOORD_0": 6
          },
          "indices": 7,
          "material": 1,
          "mode": 4
        }
      ]
    }
  ],
  "nodes": [
    {
      "children": [
        1
      ],
      "matrix": [
        0.012048192322254181,
        6.4531615515104e-34,
        -1.9374970639162567e-18,
        0.0,
        -1.9374970639162567e-18,
        4.612733168171982e-18,
        -0.012048192322254181,
        0.0,
        9.646790513245692e-35,
        0.012048192322254181,
        4.612733168171982e-18,
        0.0,
        0.0,
        0.0,
        0.0,
        1.0
      ],
      "name": "Sketchfab_model"
    },
    {
      "children": [
        2
      ],
      "matrix": [
        0.009999999776482582,
        0.0,
        0.0,
        0.0,
        0.0,
        0.0,
        0.009999999776482582,
        0.0,
        0.0,
        -0.009999999776482582,
        0.0,
        0.0,
        0.0,
        0.0,
        0.0,
        1.0
      ],
      "name": "91ed8d4bc9ea467c828f9429a7902ff2.fbx"
    },
    {
      "children": [
        3
      ],
      "name": "RootNode"
    },
    {
      "children": [
        4,
        5
      ],
      "matrix": [
        100.0,
        0.0,
        0.0,
        0.0,
        0.0,
        -1.629206793918314e-05,
        -99.99999999999868,
        0.0,
        0.0,
        99.99999999999868,
        -1.629206793918314e-05,
        0.0,
        0.0,
        0.0,
        0.0,
        1.0
      ],
      "name": "Cube.007"
    },
    {
      "mesh": 0,
      "name": "Cube.007_Body.Material_0"
    },
    {
      "mesh": 1,
      "name": "Cube.007_Point_Material_0"
    }
  ],
  "samplers": [
    {
      "magFilter": 9729,
      "minFilter": 9987,
      "wrapS": 10497,
      "wrapT": 10497
    }
  ],
  "scene": 0,
  "scenes": [
    {
      "name": "Sketchfab_Scene",
      "nodes": [
        0
      ]
    }
  ],
  "textures": [
    {
      "sampler": 0,
      "source": 0
    }
  ]
}
